<?xml version="1.0" encoding="utf-8"?>
<!-- Generator: Adobe Illustrator 27.2.0, SVG Export Plug-In . SVG Version: 6.00 Build 0)  -->
<svg version="1.1" id="Layer_1" xmlns="http://www.w3.org/2000/svg" xmlns:xlink="http://www.w3.org/1999/xlink" x="0px"
     y="0px"
     viewBox="0 0 306.4 306.4" style="enable-background:new 0 0 306.4 306.4;" xml:space="preserve">
<path d="M305.8,140.3c-25.6-0.3-46.3-21.2-46.3-46.9c0-6.3,1.2-12.3,3.5-17.7c-6.1,2.1-12.7,3.2-19.6,3.2c-33.2,0-60.2-27-60.2-60.2
	c0-5.3,0.7-10.5,2-15.4c-10.3-2.2-21-3.3-32-3.3C68.6,0,0,68.6,0,153.2s68.6,153.2,153.2,153.2s153.2-68.6,153.2-153.2
	C306.4,148.8,306.2,144.5,305.8,140.3z M100.2,200.3c-12.4,0-22.5-10.1-22.5-22.5c0-12.4,10.1-22.5,22.5-22.5
	c12.4,0,22.5,10.1,22.5,22.5C122.7,190.2,112.6,200.3,100.2,200.3z M130.7,123.9c-12.4,0-22.5-10.1-22.5-22.5
	c0-12.4,10.1-22.5,22.5-22.5s22.5,10.1,22.5,22.5C153.2,113.9,143.1,123.9,130.7,123.9z M198.9,216c-8.7,0-15.7-7-15.7-15.7
	s7-15.7,15.7-15.7c8.7,0,15.7,7,15.7,15.7S207.6,216,198.9,216z"/>
</svg>
